<svg xmlns="http://www.w3.org/2000/svg" xmlns:xlink="http://www.w3.org/1999/xlink" viewBox="0 0 880.5 880.5">
  
  <g id="canvas" class="colorize" style="isolation: isolate">
    <path d="M308.5,222.5c7.68,9.19,15.93,17.52,22.5,28,19.78,31.56,33.58,70.7,62,93.5a156.5,156.5,0,0,0,34,21c15.8,7,37.73,11.05,44.5,27l-1.5.5c-11.57,7.39-30.24,1.34-40-3.5-34.23-17-51.25-36.75-79.5-42-16.46-3.06-30.42,4.7-41,8-20.07,6.26-36.28,13.55-61.5,17-4.53.62-34.43,5.08-37.5,2L206,362.5c-11.8-24.69-16.08-64.28-15.5-98,.17-9.89-13.08-30.25,1.5-36,5.43-1.94,16.65,2,24.5,2C243.47,230.61,292.92,233.6,308.5,222.5Z" fill-rule="evenodd"/>
    <path d="M568,374l89.5,37.5c12.34,5.33,26.27,10.07,32,22l-.5,1-54.5-.5c-12,0-26.59,1.12-37-1C590.35,407.15,581.09,392.54,568,374Z" fill-rule="evenodd"/>
    <path d="M335.5,376c59.12-1.21,75,58.45,137.5,42l-3,12c-75.84,3.5-166.62.7-230-1.5L224.5,400c40.49.12,71.57-10.37,100-21.5Z" fill-rule="evenodd"/>
  </g>
  <g id="suede" class="colorize" style="isolation: isolate">
    <path d="M178.5,421s-2.5-76.57,4.5-95c1.4-2.21,2.16-9,.5-13-1-5.35-1.45-12,2.5-19,.17-2.39-2.58-5.35-2-10.5.71-6.13,3-14.18,2.5-17.5-2.87-6.31-9.51-28.12-3.5-34,4.94-4.51,12.39-10.12,16.5-4-6.35,3.76-10.55,0-13.5,7-3.6,8.52,4.23,14.47,5.5,23,.94,6.36.41,39.21,1,41S210,372,210,372l.5,2s10.62,21.83,14,26.5,16,28,16,28S188.38,429,178.5,421Z" fill-rule="evenodd"/>
    <path d="M309,223.5s-1-2.52,2.5-3,12.26-2.91,14.5-2c2.36-3.65,15.78-25.21,22.5-23.5,1.13.44,2.15,6.24,5.5,9s7.68,3.22,10.5,7.5,6,6.47,6.5,11c1.63,3.21,6.5,7.5,6.5,7.5l2-2.5S396,252,399,254.5c-13.11,2.89-26.29,11-28.5,16s-2.56,10.13,5,10c5.28-.8,11.26-4.43,14.5-6.5s12.86-5.29,19.5-5c-3.13,9.33-7.4,15.9-9,17,2.37,2,4,3.66,5,4-6.86,3.61-14,8.7-15,12.5s1.12,7.46,5,7.5,20.74-8.63,25-8.5A9.87,9.87,0,0,1,418,308s7.46,6.49,8.5,7c-5.33,3.51-14.15,8.1-14,12.5s2.19,6.85,7.5,6c4-.36,25.63-11.17,30.5-15a65.06,65.06,0,0,0-5,8.5l3.5,2.5s-8.63,6.19-9.5,10,.21,8.63,6,8.5c5.2-3,13.68-8,17-11.5s9-5.5,9-5.5l8,1s-9.82,7.07-10.5,11-4,15.39,3.5,16.5c5.2-1.56,9.89-4.13,14.5-15.5a60.65,60.65,0,0,1,12-4.5c2.78,2.88,7.5,4,7.5,4s-10.3,14.15-7,19.5,7.42,6.13,11,3.5,10-15,10-15l9,4.5s3.11,8,3,12.5,2.26,13.16,9.5,10.5,5.29-14.89,3.5-17,23,12.5,23,12.5,30.79,41.91,29.5,58c-4.42.16-128.5-2-128.5-2s8.95-27.79-1.5-43c-12-17.41-63.65-16.61-95.5-65.5C362.88,307.23,317.35,233.89,309,223.5Z" fill-rule="evenodd"/>
  </g>
  <g id="stripe" class="colorize" style="isolation: isolate">
    <path d="M175.5,427s-1,4.42,1,6,11.93,9.07,60,9.5c33.9.44,113.88,1.78,124,2s77.83-.35,83.5,0,20.55-.24,24.5.5,36.49.48,42.5.5,76.93.68,79.5.5,9.1-.35,11.5,1c4.79.06,63.72-.73,72-2.5,10.51-1.4,16.28-1.11,17.5-2,.47-4.72,1.49-6.25-2.5-6s-17,2.61-23.5,2.5-58,1.81-63.5,1-8.3-1-12.5-.5c-18,0-109.14-1.11-115-1s-70,.5-70,.5-50.95.31-53.5,0-100.34-1.54-105.5-2-36.34-1.47-43-3S178.5,431.71,175.5,427Z" fill-rule="evenodd"/>
  </g>
  <g id="shadow">
    <image id="shadow_Image" data-name="shadow" width="1092" height="1012" transform="translate(168 188) scale(0.5)" xlink:href="rollerskate.png"/>
  </g>
</svg>
